<svg width="43" height="43" viewBox="0 0 43 43" fill="none" xmlns="http://www.w3.org/2000/svg">
<g filter="url(#filter0_d_34_299)">
<circle cx="21.5" cy="21.5" r="13.5" fill="white"/>
</g>
<path fill-rule="evenodd" clip-rule="evenodd" d="M16.4007 16.0133C16.2488 16.0632 16.1203 16.1727 16.044 16.3171C15.9882 16.4228 15.988 16.7272 16.0437 16.8334C16.0654 16.8748 17.1129 17.9421 18.3714 19.205L20.6595 21.5014L18.3714 23.7977C17.1129 25.0607 16.0654 26.128 16.0437 26.1694C15.9844 26.2824 15.9883 26.5803 16.0505 26.6964C16.1049 26.7979 16.2101 26.9017 16.315 26.9573C16.4204 27.0133 16.724 27.0135 16.8299 26.9576C16.8712 26.9358 17.9357 25.8857 19.1954 24.6239L21.4859 22.3299L23.7763 24.6239C25.036 25.8857 26.1005 26.9358 26.1418 26.9576C26.2549 27.0172 26.5514 27.0132 26.669 26.9505C26.7766 26.893 26.8955 26.764 26.9327 26.664C26.9481 26.6227 26.9696 26.5721 26.9804 26.5515C27.0076 26.4999 27.006 26.2707 26.9786 26.2877C26.9668 26.295 26.9572 26.2854 26.9572 26.2664C26.9572 26.2474 26.9417 26.2008 26.9228 26.1629C26.904 26.1251 25.8589 25.0608 24.6004 23.7978L22.3123 21.5015L24.6101 19.1943C26.2906 17.507 26.915 16.867 26.9343 16.8119C26.9488 16.7705 26.9696 16.7198 26.9804 16.6993C27.0076 16.6476 27.006 16.4184 26.9786 16.4354C26.9668 16.4427 26.9572 16.4332 26.9572 16.4141C26.9572 16.3139 26.8083 16.1279 26.6675 16.052C26.5517 15.9896 26.2546 15.9857 26.1418 16.0452C26.1005 16.0669 25.036 17.1171 23.7763 18.3788L21.4859 20.6729L19.1954 18.3788C17.9357 17.1171 16.8712 16.0677 16.8299 16.0469C16.747 16.0051 16.4874 15.9847 16.4007 16.0133ZM16 16.5753C16 16.6522 16.0039 16.6836 16.0086 16.6452C16.0134 16.6067 16.0134 16.5438 16.0086 16.5053C16.0039 16.4669 16 16.4984 16 16.5753ZM16 26.4275C16 26.5044 16.0039 26.5359 16.0086 26.4974C16.0134 26.459 16.0134 26.3961 16.0086 26.3576C16.0039 26.3191 16 26.3506 16 26.4275Z" fill="#FF852D"/>
<defs>
<filter id="filter0_d_34_299" x="0.2" y="0.2" width="42.6" height="42.6" filterUnits="userSpaceOnUse" color-interpolation-filters="sRGB">
<feFlood flood-opacity="0" result="BackgroundImageFix"/>
<feColorMatrix in="SourceAlpha" type="matrix" values="0 0 0 0 0 0 0 0 0 0 0 0 0 0 0 0 0 0 127 0" result="hardAlpha"/>
<feOffset/>
<feGaussianBlur stdDeviation="3.9"/>
<feComposite in2="hardAlpha" operator="out"/>
<feColorMatrix type="matrix" values="0 0 0 0 0 0 0 0 0 0 0 0 0 0 0 0 0 0 0.25 0"/>
<feBlend mode="normal" in2="BackgroundImageFix" result="effect1_dropShadow_34_299"/>
<feBlend mode="normal" in="SourceGraphic" in2="effect1_dropShadow_34_299" result="shape"/>
</filter>
</defs>
</svg>
