<svg width="328" height="106" viewBox="0 0 328 106" fill="none" xmlns="http://www.w3.org/2000/svg">
<rect width="328" height="106" rx="12" fill="#FF852D"/>
<path d="M15.38 29.92L16.56 27.14C17.16 27.4467 17.7867 27.68 18.44 27.84C19.0933 28 19.7267 28.0933 20.34 28.12C20.9533 28.1467 21.5067 28.1067 22 28C22.5067 27.88 22.9067 27.7 23.2 27.46C23.4933 27.22 23.64 26.9067 23.64 26.52C23.64 26.0933 23.46 25.7867 23.1 25.6C22.7533 25.4 22.2933 25.3 21.72 25.3H18.14V22.4H21.4C21.9333 22.4 22.3467 22.2933 22.64 22.08C22.9333 21.8667 23.08 21.58 23.08 21.22C23.08 20.8733 22.9533 20.6 22.7 20.4C22.4467 20.1867 22.1067 20.04 21.68 19.96C21.2533 19.8667 20.7733 19.8333 20.24 19.86C19.7067 19.8867 19.1533 19.9867 18.58 20.16C18.0067 20.32 17.4533 20.54 16.92 20.82L15.76 17.86C16.7067 17.3933 17.7 17.0733 18.74 16.9C19.78 16.7267 20.7933 16.6867 21.78 16.78C22.7667 16.8733 23.66 17.0933 24.46 17.44C25.26 17.7733 25.8933 18.22 26.36 18.78C26.84 19.34 27.08 20 27.08 20.76C27.08 21.4267 26.9 22.02 26.54 22.54C26.18 23.06 25.6933 23.4667 25.08 23.76C24.4667 24.0533 23.76 24.2 22.96 24.2L23.06 23.36C23.98 23.36 24.78 23.52 25.46 23.84C26.1533 24.16 26.6867 24.6 27.06 25.16C27.4467 25.7067 27.64 26.34 27.64 27.06C27.64 27.74 27.46 28.3467 27.1 28.88C26.7533 29.4 26.2667 29.84 25.64 30.2C25.0133 30.56 24.2933 30.8267 23.48 31C22.68 31.1867 21.82 31.2733 20.9 31.26C19.98 31.26 19.0467 31.1467 18.1 30.92C17.1667 30.6933 16.26 30.36 15.38 29.92ZM35.9813 31V28.98L35.7213 28.48V24.76C35.7213 24.16 35.5346 23.7 35.1613 23.38C34.8013 23.0467 34.2213 22.88 33.4212 22.88C32.9013 22.88 32.3746 22.9667 31.8413 23.14C31.3079 23.3 30.8546 23.5267 30.4813 23.82L29.2013 21.24C29.8146 20.84 30.5479 20.5333 31.4013 20.32C32.2679 20.0933 33.1279 19.98 33.9813 19.98C35.7413 19.98 37.1013 20.3867 38.0613 21.2C39.0346 22 39.5213 23.26 39.5213 24.98V31H35.9813ZM32.7813 31.18C31.9146 31.18 31.1813 31.0333 30.5813 30.74C29.9813 30.4467 29.5213 30.0467 29.2013 29.54C28.8946 29.0333 28.7413 28.4667 28.7413 27.84C28.7413 27.1733 28.9079 26.6 29.2413 26.12C29.5879 25.6267 30.1146 25.2533 30.8213 25C31.5279 24.7333 32.4413 24.6 33.5612 24.6H36.1213V26.58H34.0813C33.4679 26.58 33.0346 26.68 32.7813 26.88C32.5413 27.08 32.4213 27.3467 32.4213 27.68C32.4213 28.0133 32.5479 28.28 32.8013 28.48C33.0546 28.68 33.4013 28.78 33.8413 28.78C34.2546 28.78 34.6279 28.68 34.9613 28.48C35.3079 28.2667 35.5613 27.9467 35.7213 27.52L36.2413 28.92C36.0413 29.6667 35.6479 30.2333 35.0613 30.62C34.4879 30.9933 33.7279 31.18 32.7813 31.18ZM48.6273 31.18C47.7073 31.18 46.9207 30.98 46.2673 30.58C45.614 30.1667 45.114 29.5533 44.7673 28.74C44.434 27.9133 44.2673 26.86 44.2673 25.58C44.2673 24.2867 44.4273 23.2333 44.7473 22.42C45.0673 21.5933 45.5473 20.98 46.1873 20.58C46.8407 20.18 47.654 19.98 48.6273 19.98C49.614 19.98 50.5073 20.2133 51.3073 20.68C52.1207 21.1333 52.7607 21.78 53.2273 22.62C53.7073 23.4467 53.9473 24.4333 53.9473 25.58C53.9473 26.7267 53.7073 27.72 53.2273 28.56C52.7607 29.4 52.1207 30.0467 51.3073 30.5C50.5073 30.9533 49.614 31.18 48.6273 31.18ZM41.8073 34.88V20.16H45.4273V22L45.4073 25.58L45.6073 29.18V34.88H41.8073ZM47.8273 28.16C48.254 28.16 48.634 28.06 48.9673 27.86C49.314 27.66 49.5873 27.3667 49.7873 26.98C50.0007 26.5933 50.1073 26.1267 50.1073 25.58C50.1073 25.0333 50.0007 24.5667 49.7873 24.18C49.5873 23.7933 49.314 23.5 48.9673 23.3C48.634 23.1 48.254 23 47.8273 23C47.4007 23 47.014 23.1 46.6673 23.3C46.334 23.5 46.0607 23.7933 45.8473 24.18C45.6473 24.5667 45.5473 25.0333 45.5473 25.58C45.5473 26.1267 45.6473 26.5933 45.8473 26.98C46.0607 27.3667 46.334 27.66 46.6673 27.86C47.014 28.06 47.4007 28.16 47.8273 28.16ZM61.9578 31V28.98L61.6978 28.48V24.76C61.6978 24.16 61.5111 23.7 61.1378 23.38C60.7778 23.0467 60.1978 22.88 59.3978 22.88C58.8778 22.88 58.3511 22.9667 57.8178 23.14C57.2845 23.3 56.8311 23.5267 56.4578 23.82L55.1778 21.24C55.7911 20.84 56.5245 20.5333 57.3778 20.32C58.2445 20.0933 59.1045 19.98 59.9578 19.98C61.7178 19.98 63.0778 20.3867 64.0378 21.2C65.0111 22 65.4978 23.26 65.4978 24.98V31H61.9578ZM58.7578 31.18C57.8911 31.18 57.1578 31.0333 56.5578 30.74C55.9578 30.4467 55.4978 30.0467 55.1778 29.54C54.8711 29.0333 54.7178 28.4667 54.7178 27.84C54.7178 27.1733 54.8845 26.6 55.2178 26.12C55.5645 25.6267 56.0911 25.2533 56.7978 25C57.5045 24.7333 58.4178 24.6 59.5378 24.6H62.0978V26.58H60.0578C59.4445 26.58 59.0111 26.68 58.7578 26.88C58.5178 27.08 58.3978 27.3467 58.3978 27.68C58.3978 28.0133 58.5245 28.28 58.7778 28.48C59.0311 28.68 59.3778 28.78 59.8178 28.78C60.2311 28.78 60.6045 28.68 60.9378 28.48C61.2845 28.2667 61.5378 27.9467 61.6978 27.52L62.2178 28.92C62.0178 29.6667 61.6245 30.2333 61.0378 30.62C60.4645 30.9933 59.7045 31.18 58.7578 31.18ZM73.4239 31.28C72.5439 31.28 71.7239 31.1533 70.9639 30.9C70.2172 30.6467 69.5639 30.2467 69.0039 29.7C68.4572 29.1533 68.0239 28.44 67.7039 27.56C67.3972 26.68 67.2439 25.6133 67.2439 24.36C67.2439 23.52 67.3172 22.7467 67.4639 22.04C67.6106 21.3333 67.8306 20.6867 68.1239 20.1C68.4306 19.5 68.8172 18.9733 69.2839 18.52C69.7639 18.0667 70.3239 17.6867 70.9639 17.38C71.6039 17.0733 72.3372 16.84 73.1639 16.68L78.4239 15.68L78.9439 18.86L74.3839 19.72C74.1039 19.7733 73.7972 19.84 73.4639 19.92C73.1439 20 72.8306 20.12 72.5239 20.28C72.2172 20.4267 71.9306 20.6333 71.6639 20.9C71.4106 21.1667 71.2039 21.52 71.0439 21.96C70.8972 22.3867 70.8239 22.92 70.8239 23.56C70.8239 23.7467 70.8306 23.9 70.8439 24.02C70.8706 24.1267 70.8906 24.2533 70.9039 24.4C70.9172 24.5333 70.9239 24.74 70.9239 25.02L69.8639 24.04C70.1839 23.48 70.5639 23.0067 71.0039 22.62C71.4572 22.2333 71.9772 21.9333 72.5639 21.72C73.1506 21.5067 73.8039 21.4 74.5239 21.4C75.5772 21.4 76.4839 21.6067 77.2439 22.02C78.0039 22.42 78.5839 22.98 78.9839 23.7C79.3972 24.4067 79.6039 25.2133 79.6039 26.12C79.6039 27.1867 79.3372 28.1067 78.8039 28.88C78.2706 29.64 77.5372 30.2333 76.6039 30.66C75.6839 31.0733 74.6239 31.28 73.4239 31.28ZM73.5239 28.4C73.9639 28.4 74.3439 28.3067 74.6639 28.12C74.9972 27.9333 75.2572 27.6733 75.4439 27.34C75.6306 27.0067 75.7239 26.6333 75.7239 26.22C75.7239 25.7933 75.6306 25.4267 75.4439 25.12C75.2572 24.8133 74.9972 24.5733 74.6639 24.4C74.3439 24.2267 73.9639 24.14 73.5239 24.14C73.0839 24.14 72.6906 24.2267 72.3439 24.4C72.0106 24.5733 71.7506 24.8067 71.5639 25.1C71.3772 25.3933 71.2839 25.7467 71.2839 26.16C71.2839 26.5733 71.3772 26.9533 71.5639 27.3C71.7506 27.6467 72.0106 27.92 72.3439 28.12C72.6906 28.3067 73.0839 28.4 73.5239 28.4ZM86.6981 31.18C85.5115 31.18 84.4581 30.94 83.5381 30.46C82.6181 29.98 81.8915 29.32 81.3581 28.48C80.8381 27.6267 80.5781 26.6533 80.5781 25.56C80.5781 24.4667 80.8381 23.5 81.3581 22.66C81.8915 21.82 82.6181 21.1667 83.5381 20.7C84.4581 20.22 85.5115 19.98 86.6981 19.98C87.8848 19.98 88.9381 20.22 89.8581 20.7C90.7915 21.1667 91.5181 21.82 92.0381 22.66C92.5581 23.5 92.8181 24.4667 92.8181 25.56C92.8181 26.6533 92.5581 27.6267 92.0381 28.48C91.5181 29.32 90.7915 29.98 89.8581 30.46C88.9381 30.94 87.8848 31.18 86.6981 31.18ZM86.6981 28.16C87.1381 28.16 87.5248 28.06 87.8581 27.86C88.2048 27.66 88.4781 27.3667 88.6781 26.98C88.8781 26.58 88.9781 26.1067 88.9781 25.56C88.9781 25.0133 88.8781 24.5533 88.6781 24.18C88.4781 23.7933 88.2048 23.5 87.8581 23.3C87.5248 23.1 87.1381 23 86.6981 23C86.2715 23 85.8848 23.1 85.5381 23.3C85.2048 23.5 84.9315 23.7933 84.7181 24.18C84.5181 24.5533 84.4181 25.0133 84.4181 25.56C84.4181 26.1067 84.5181 26.58 84.7181 26.98C84.9315 27.3667 85.2048 27.66 85.5381 27.86C85.8848 28.06 86.2715 28.16 86.6981 28.16ZM96.6297 31V22.34L97.4497 23.18H93.1297V20.16H103.89V23.18H99.5697L100.41 22.34V31H96.6297ZM110.272 31.18C109.086 31.18 108.032 30.94 107.112 30.46C106.192 29.98 105.466 29.32 104.932 28.48C104.412 27.6267 104.152 26.6533 104.152 25.56C104.152 24.4667 104.412 23.5 104.932 22.66C105.466 21.82 106.192 21.1667 107.112 20.7C108.032 20.22 109.086 19.98 110.272 19.98C111.459 19.98 112.512 20.22 113.432 20.7C114.366 21.1667 115.092 21.82 115.612 22.66C116.132 23.5 116.392 24.4667 116.392 25.56C116.392 26.6533 116.132 27.6267 115.612 28.48C115.092 29.32 114.366 29.98 113.432 30.46C112.512 30.94 111.459 31.18 110.272 31.18ZM110.272 28.16C110.712 28.16 111.099 28.06 111.432 27.86C111.779 27.66 112.052 27.3667 112.252 26.98C112.452 26.58 112.552 26.1067 112.552 25.56C112.552 25.0133 112.452 24.5533 112.252 24.18C112.052 23.7933 111.779 23.5 111.432 23.3C111.099 23.1 110.712 23 110.272 23C109.846 23 109.459 23.1 109.112 23.3C108.779 23.5 108.506 23.7933 108.292 24.18C108.092 24.5533 107.992 25.0133 107.992 25.56C107.992 26.1067 108.092 26.58 108.292 26.98C108.506 27.3667 108.779 27.66 109.112 27.86C109.459 28.06 109.846 28.16 110.272 28.16ZM125.775 31L122.475 25.94L125.535 24.14L130.255 31H125.775ZM118.175 31V20.16H121.975V31H118.175ZM120.855 27.14V24.16H124.775V27.14H120.855ZM125.915 26L122.355 25.64L125.995 20.16H130.015L125.915 26Z" fill="white"/>
</svg>
