<svg width="104" height="25" viewBox="0 0 104 25" fill="none" xmlns="http://www.w3.org/2000/svg">
<rect width="104" height="25" rx="6" fill="#F1F1F1" fill-opacity="0.4"/>
<path fill-rule="evenodd" clip-rule="evenodd" d="M70.0287 13.5269C70.047 13.5656 70.703 14.1729 71.9004 15.2596C73.3337 16.5604 73.7627 16.9403 73.8284 16.9671C73.9359 17.011 74.0587 17.011 74.1663 16.9671C74.2833 16.9195 77.9224 13.62 77.968 13.5202C78.0582 13.3228 77.9505 13.094 77.7349 13.0249C77.6369 12.9936 77.5843 12.9922 77.4816 13.0185C77.4145 13.0356 77.1802 13.2412 75.7008 14.5814L73.9973 16.1245L72.2938 14.581C70.6897 13.1276 70.585 13.0362 70.5001 13.0156C70.3215 12.9723 70.1204 13.054 70.036 13.2041C69.9912 13.2839 69.9876 13.44 70.0287 13.5269Z" fill="white"/>
</svg>
